<?xml version="1.0" ?><!DOCTYPE svg  PUBLIC '-//W3C//DTD SVG 1.1//EN'  'http://www.w3.org/Graphics/SVG/1.1/DTD/svg11.dtd'><svg height="6.82666in" style="shape-rendering:geometricPrecision; text-rendering:geometricPrecision; image-rendering:optimizeQuality; fill-rule:evenodd; clip-rule:evenodd" viewBox="0 0 6827 6827" width="6.82666in" xml:space="preserve" xmlns="http://www.w3.org/2000/svg" xmlns:xlink="http://www.w3.org/1999/xlink"><defs><style type="text/css">
   <![CDATA[
    .fil3 {fill:none}
    .fil2 {fill:#80CBC4}
    .fil1 {fill:#FAC23C}
    .fil0 {fill:#013668;fill-rule:nonzero}
   ]]>
  </style></defs><g id="Layer_x0020_1"><g id="_272693248"><path class="fil0" d="M3413 2922c-23,0 -50,58 -86,133 -92,192 -220,463 -664,509l-4 0c-2,0 -656,40 -748,-389l0 0c-47,-195 -129,-345 -190,-457 -54,-100 -95,-174 -91,-242 8,-146 163,-181 646,-154 382,-3 772,-4 1137,-4 365,0 755,1 1137,4 484,-27 638,8 646,154 4,68 -36,142 -91,242 -61,112 -143,262 -190,457l0 0c-92,429 -746,389 -748,389l-4 0c-444,-47 -573,-317 -664,-509 -36,-75 -63,-133 -86,-133zm-230 64c61,-127 107,-224 230,-224 124,0 170,97 230,224 75,158 182,381 534,419 38,2 520,20 581,-263l1 -2c52,-216 140,-378 206,-498 42,-77 73,-133 71,-157 -1,-23 -116,-24 -479,-3l-5 0c-330,-3 -723,-4 -1141,-4 -418,0 -810,1 -1141,4l-5 0c-363,-20 -478,-20 -479,3 -1,23 30,80 71,157 65,120 154,282 206,498l1 2c61,283 544,265 581,263 352,-38 459,-261 534,-419z"/><path class="fil0" d="M3413 1013c-663,0 -1263,269 -1697,703 -434,434 -703,1034 -703,1697 0,663 269,1263 703,1697 434,434 1034,703 1697,703 663,0 1263,-269 1697,-703 434,-434 703,-1034 703,-1697 0,-663 -269,-1263 -703,-1697 -434,-434 -1034,-703 -1697,-703zm-1810 590c463,-463 1103,-750 1810,-750 707,0 1347,287 1810,750 463,463 750,1103 750,1810 0,707 -287,1347 -750,1810 -463,463 -1103,750 -1810,750 -707,0 -1347,-287 -1810,-750 -463,-463 -750,-1103 -750,-1810 0,-707 287,-1347 750,-1810z"/><path class="fil0" d="M4412 4200c21,-39 69,-53 108,-32 39,21 53,69 32,108 -101,185 -264,341 -466,450 -194,104 -425,165 -673,165 -247,0 -478,-60 -673,-165 -203,-108 -365,-265 -466,-450 -21,-39 -7,-87 32,-108 39,-21 87,-7 108,32 86,158 226,291 401,385 172,92 377,145 598,145 221,0 426,-53 598,-145 175,-94 315,-228 401,-385z"/></g><path class="fil1" d="M3413 2319c365,0 755,1 1137,4 484,-27 638,8 646,154 4,68 -36,142 -91,242 -61,112 -143,262 -190,457l0 0c-92,429 -746,389 -748,389l-4 0c-444,-47 -573,-317 -664,-509 -36,-75 -63,-133 -86,-133 -23,0 -50,58 -86,133 -92,192 -220,463 -664,509l-4 0c-2,0 -656,40 -748,-389l0 0c-47,-195 -129,-345 -190,-457 -54,-100 -95,-174 -91,-242 8,-146 163,-181 646,-154 382,-3 772,-4 1137,-4zm999 1881c21,-39 69,-53 108,-32 39,21 53,69 32,108 -101,185 -264,341 -466,450 -194,104 -425,165 -673,165 -247,0 -478,-60 -673,-165 -203,-108 -365,-265 -466,-450 -21,-39 -7,-87 32,-108 39,-21 87,-7 108,32 86,158 226,291 401,385 172,92 377,145 598,145 221,0 426,-53 598,-145 175,-94 315,-228 401,-385zm-999 -3187c-663,0 -1263,269 -1697,703 -434,434 -703,1034 -703,1697 0,663 269,1263 703,1697 434,434 1034,703 1697,703 663,0 1263,-269 1697,-703 434,-434 703,-1034 703,-1697 0,-663 -269,-1263 -703,-1697 -434,-434 -1034,-703 -1697,-703z"/><path class="fil2" d="M4554 2483c-330,-3 -723,-4 -1141,-4 -418,0 -810,1 -1141,4l-5 0c-363,-20 -478,-20 -479,3 -1,23 30,80 71,157 65,120 154,282 206,498l1 2c61,283 544,265 581,263 352,-38 459,-261 534,-419 61,-127 107,-224 230,-224 124,0 170,97 230,224 75,158 182,381 534,419 38,2 520,20 581,-263l1 -2c52,-216 140,-378 206,-498 42,-77 73,-133 71,-157 -1,-23 -116,-24 -479,-3l-5 0z"/></g><rect class="fil3" height="6827" width="6827"/></svg>